<?xml version="1.0" encoding="UTF-8" standalone="no"?>
<!-- Created with Inkscape (http://www.inkscape.org/) -->

<svg width="216.69374mm" height="175.15416mm" viewBox="0 0 216.69374 175.15416" version="1.1" id="svg5" inkscape:version="1.1 (c68e22c387, 2021-05-23)" sodipodi:docname="desenho.svg" inkscape:export-filename="G:\Meu Drive\Projetos\Probability_GEI\ProbBreed\vignettes\img\desenho.png" inkscape:export-xdpi="1000" inkscape:export-ydpi="1000" xmlns:inkscape="http://www.inkscape.org/namespaces/inkscape" xmlns:sodipodi="http://sodipodi.sourceforge.net/DTD/sodipodi-0.dtd" xmlns="http://www.w3.org/2000/svg" xmlns:svg="http://www.w3.org/2000/svg">
    <sodipodi:namedview id="namedview7" pagecolor="#ffffff" bordercolor="#111111" borderopacity="1" inkscape:pageshadow="0" inkscape:pageopacity="0" inkscape:pagecheckerboard="1" inkscape:document-units="mm" showgrid="false" inkscape:zoom="0.85165544" inkscape:cx="-61.644648" inkscape:cy="45.206075" inkscape:window-width="1366" inkscape:window-height="705" inkscape:window-x="-8" inkscape:window-y="-8" inkscape:window-maximized="1" inkscape:current-layer="layer1" />
    <defs id="defs2">
        <clipPath id="clip0">
            <rect x="21" y="7" width="1009" height="662" id="rect9" />
        </clipPath>
        <clipPath id="clip0-0">
            <rect x="21" y="7" width="819" height="662" id="rect411" />
        </clipPath>
        <clipPath id="clip0-00">
            <rect x="21" y="7" width="819" height="662" id="rect822" />
        </clipPath>
    </defs>
    <g inkscape:label="Camada 1" inkscape:groupmode="layer" id="layer1" transform="translate(537.96487,305.64466)">
        <g clip-path="url(#clip0-00)" transform="matrix(0.26458333,0,0,0.26458333,-543.52112,-307.49674)" id="g981" inkscape:export-filename="G:\Meu Drive\Projetos\Probability_GEI\ProbBreed\vignettes\img\g981.png" inkscape:export-xdpi="1000" inkscape:export-ydpi="1000">
            <path d="m 299.5,22.3336 c 0,-8.1923 6.641,-14.83355 14.834,-14.83355 h 210.332 c 8.193,0 14.834,6.64125 14.834,14.83355 v 59.3329 c 0,8.1923 -6.641,14.8336 -14.834,14.8336 H 314.334 c -8.193,0 -14.834,-6.6413 -14.834,-14.8336 z" stroke="#ffffff" stroke-width="1.33333" stroke-miterlimit="8" fill="#767171" fill-rule="evenodd" id="path827" />
            <text fill="#ffffff" font-family="'Segoe UI', 'Segoe UI_MSFontService', sans-serif" font-weight="700" font-size="19px" transform="translate(366.389,58)" id="text829">Only</text>
            <text fill="#ffffff" font-family="'Segoe UI', 'Segoe UI_MSFontService', sans-serif" font-weight="700" font-size="19px" transform="translate(407.222,58)" id="text831">-</text>
            <text fill="#ffffff" font-family="'Segoe UI', 'Segoe UI_MSFontService', sans-serif" font-weight="700" font-size="19px" transform="translate(414.722,58)" id="text833">means</text>
            <path d="m 299.5,131.5 c 0,-8.284 6.716,-15 15,-15 h 210 c 8.284,0 15,6.716 15,15 v 60 c 0,8.284 -6.716,15 -15,15 h -210 c -8.284,0 -15,-6.716 -15,-15 z" stroke="#ffffff" stroke-width="1.33333" stroke-miterlimit="8" fill="#767171" fill-rule="evenodd" id="path835" />
            <text fill="#ffffff" font-family="'Segoe UI', 'Segoe UI_MSFontService', sans-serif" font-weight="700" font-size="19px" transform="translate(400.167,168)" id="text837">CBD</text>
            <path d="m 298.5,241.334 c 0,-8.193 6.641,-14.834 14.834,-14.834 h 211.333 c 8.192,0 14.833,6.641 14.833,14.834 v 59.333 c 0,8.192 -6.641,14.833 -14.833,14.833 H 313.334 c -8.193,0 -14.834,-6.641 -14.834,-14.833 z" stroke="#ffffff" stroke-width="1.33333" stroke-miterlimit="8" fill="#767171" fill-rule="evenodd" id="path839" />
            <text fill="#ffffff" font-family="'Segoe UI', 'Segoe UI_MSFontService', sans-serif" font-weight="700" font-size="19px" transform="translate(403.038,277)" id="text841">IBD</text>
            <path d="m 21.5001,135.5 c 0,-7.18 5.8204,-13 13.0003,-13 H 212.5 c 7.18,0 13,5.82 13,13 v 52 c 0,7.18 -5.82,13 -13,13 H 34.5004 c -7.1799,0 -13.0003,-5.82 -13.0003,-13 z" stroke="#000000" stroke-width="1.33333" stroke-miterlimit="8" fill="#d0cece" fill-rule="evenodd" id="path843" />
            <text font-family="'Segoe UI', 'Segoe UI_MSFontService', sans-serif" font-weight="700" font-size="19px" transform="translate(68.4501,157)" id="text845">With</text>
            <text font-family="'Segoe UI', 'Segoe UI_MSFontService', sans-serif" font-weight="700" font-size="19px" transform="translate(116.283,157)" id="text847">Region</text>
            <text font-family="'Segoe UI', 'Segoe UI_MSFontService', sans-serif" font-weight="700" font-size="19px" transform="translate(70.1901,180)" id="text849">Information</text>
            <path d="m 21.5001,486.334 c 0,-7.088 5.7458,-12.834 12.8336,-12.834 H 212.666 c 7.088,0 12.834,5.746 12.834,12.834 v 51.332 c 0,7.088 -5.746,12.834 -12.834,12.834 H 34.3337 c -7.0878,0 -12.8336,-5.746 -12.8336,-12.834 z" stroke="#000000" stroke-width="1.33333" stroke-miterlimit="8" fill="#d0cece" fill-rule="evenodd" id="path851" />
            <text font-family="Calibri, Calibri_MSFontService, sans-serif" font-weight="700" font-size="19px" transform="translate(62.1035,506)" id="text853">Without</text>
            <text font-family="Calibri, Calibri_MSFontService, sans-serif" font-weight="700" font-size="19px" transform="translate(130.937,506)" id="text855">Region</text>
            <text font-family="Calibri, Calibri_MSFontService, sans-serif" font-weight="700" font-size="19px" transform="translate(76.9901,529)" id="text857">information</text>
            <path d="M 0,-0.333333 H 36.9896 V 109.395 l -0.3333,-0.333 h 29.9896 v 0.667 H 36.3229 V 0 l 0.3334,0.333333 H 0 Z M 65.3125,105.395 l 8,4 l -8,4 z" transform="matrix(1,0,0,-1,225.5,161.896)" id="path859" />
            <path d="m 225.5,161.167 h 36.939 v 109.864 l -0.333,-0.333 h 29.939 v 0.666 H 261.773 V 161.5 l 0.333,0.333 H 225.5 Z m 65.212,105.864 l 8,4 l -8,4 z" id="path861" />
            <path d="m 225.5,161.167 h 66.636 v 0.666 H 225.5 Z m 65.302,-3.667 l 8,4 l -8,4 z" id="path863" />
            <path d="m 299.5,370.334 c 0,-8.193 6.641,-14.834 14.834,-14.834 h 210.332 c 8.193,0 14.834,6.641 14.834,14.834 v 59.332 c 0,8.193 -6.641,14.834 -14.834,14.834 H 314.334 c -8.193,0 -14.834,-6.641 -14.834,-14.834 z" stroke="#ffffff" stroke-width="1.33333" stroke-miterlimit="8" fill="#767171" fill-rule="evenodd" id="path865" />
            <text fill="#ffffff" font-family="'Segoe UI', 'Segoe UI_MSFontService', sans-serif" font-weight="700" font-size="19px" transform="translate(366.389,406)" id="text867">Only</text>
            <text fill="#ffffff" font-family="'Segoe UI', 'Segoe UI_MSFontService', sans-serif" font-weight="700" font-size="19px" transform="translate(407.222,406)" id="text869">-</text>
            <text fill="#ffffff" font-family="'Segoe UI', 'Segoe UI_MSFontService', sans-serif" font-weight="700" font-size="19px" transform="translate(414.722,406)" id="text871">means</text>
            <path d="m 299.5,482.334 c 0,-8.193 6.641,-14.834 14.834,-14.834 h 210.332 c 8.193,0 14.834,6.641 14.834,14.834 v 59.332 c 0,8.193 -6.641,14.834 -14.834,14.834 H 314.334 c -8.193,0 -14.834,-6.641 -14.834,-14.834 z" stroke="#ffffff" stroke-width="1.33333" stroke-miterlimit="8" fill="#767171" fill-rule="evenodd" id="path873" />
            <text fill="#ffffff" font-family="'Segoe UI', 'Segoe UI_MSFontService', sans-serif" font-weight="700" font-size="19px" transform="translate(400.39,518)" id="text875">CBD</text>
            <path d="m 298.5,594.334 c 0,-8.193 6.641,-14.834 14.834,-14.834 h 211.333 c 8.192,0 14.833,6.641 14.833,14.834 v 59.333 c 0,8.192 -6.641,14.833 -14.833,14.833 H 313.334 c -8.193,0 -14.834,-6.641 -14.834,-14.833 z" stroke="#ffffff" stroke-width="1.33333" stroke-miterlimit="8" fill="#767171" fill-rule="evenodd" id="path877" />
            <text fill="#ffffff" font-family="'Segoe UI', 'Segoe UI_MSFontService', sans-serif" font-weight="700" font-size="19px" transform="translate(402.848,631)" id="text879">IBD</text>
            <path d="M 0,-0.333333 H 36.9896 V 111.587 l -0.3333,-0.334 h 29.9896 v 0.667 H 36.3229 V 0 l 0.3334,0.333333 H 0 Z M 65.3125,107.587 l 8,4 l -8,4 z" transform="matrix(1,0,0,-1,225.5,512.087)" id="path881" />
            <path d="m 225.5,511.167 h 36.844 v 113.016 l -0.333,-0.334 h 29.844 v 0.667 H 261.677 V 511.5 l 0.334,0.333 H 225.5 Z m 65.021,109.016 l 8,4 l -8,4 z" id="path883" />
            <path d="m 225.502,511.167 l 66.858,0.297 l -0.003,0.667 l -66.858,-0.298 z m 65.541,-3.375 l 7.982,4.035 l -8.018,3.965 z" id="path885" />
            <path d="m 599.5,22.5003 c 0,-8.2844 6.716,-15.00025 15,-15.00025 h 210 c 8.284,0 15,6.71585 15,15.00025 v 59.9995 c 0,8.2844 -6.716,15.0003 -15,15.0003 h -210 c -8.284,0 -15,-6.7159 -15,-15.0003 z" stroke="#ffffff" stroke-width="1.33333" stroke-miterlimit="8" fill-rule="evenodd" id="path887" />
            <text fill="#ffffff" font-family="'Source Code Pro', 'Source Code Pro_MSFontService', sans-serif" font-weight="400" font-size="14px" transform="translate(612.53,40)" id="text889">rept</text>
            <text fill="#ffffff" font-family="'Source Code Pro', 'Source Code Pro_MSFontService', sans-serif" font-weight="400" font-size="14px" transform="translate(654.197,40)" id="text891">= NULL</text>
            <text fill="#ffffff" font-family="'Source Code Pro', 'Source Code Pro_MSFontService', sans-serif" font-weight="400" font-size="14px" transform="translate(612.53,74)" id="text893">reg</text>
            <text fill="#ffffff" font-family="'Source Code Pro', 'Source Code Pro_MSFontService', sans-serif" font-weight="400" font-size="14px" transform="translate(645.864,74)" id="text895">= “</text>
            <text fill="#ffffff" font-family="'Source Code Pro', 'Source Code Pro_MSFontService', sans-serif" font-weight="400" font-size="14px" transform="translate(670.864,74)" id="text897">Region</text>
            <text fill="#ffffff" font-family="'Source Code Pro', 'Source Code Pro_MSFontService', sans-serif" font-weight="400" font-size="14px" transform="translate(720.864,74)" id="text899">”</text>
            <path d="m 599.5,241.334 c 0,-8.193 6.641,-14.834 14.834,-14.834 h 210.332 c 8.193,0 14.834,6.641 14.834,14.834 v 59.332 c 0,8.193 -6.641,14.834 -14.834,14.834 H 614.334 c -8.193,0 -14.834,-6.641 -14.834,-14.834 z" stroke="#ffffff" stroke-width="1.33333" stroke-miterlimit="8" fill-rule="evenodd" id="path901" />
            <text fill="#ffffff" font-family="'Source Code Pro', 'Source Code Pro_MSFontService', sans-serif" font-weight="400" font-size="14px" transform="translate(612.53,259)" id="text903">rept</text>
            <text fill="#ffffff" font-family="'Source Code Pro', 'Source Code Pro_MSFontService', sans-serif" font-weight="400" font-size="14px" transform="translate(654.197,259)" id="text905">=</text>
            <text fill="#ffffff" font-family="'Source Code Pro', 'Source Code Pro_MSFontService', sans-serif" font-weight="400" font-size="14px" transform="translate(670.864,259)" id="text907">c(“Rep”, “Block”)</text>
            <text fill="#ffffff" font-family="'Source Code Pro', 'Source Code Pro_MSFontService', sans-serif" font-weight="400" font-size="14px" transform="translate(612.53,293)" id="text909">reg</text>
            <text fill="#ffffff" font-family="'Source Code Pro', 'Source Code Pro_MSFontService', sans-serif" font-weight="400" font-size="14px" transform="translate(645.864,293)" id="text911">=</text>
            <text fill="#ffffff" font-family="'Source Code Pro', 'Source Code Pro_MSFontService', sans-serif" font-weight="400" font-size="14px" transform="translate(662.53,293)" id="text913">“</text>
            <text fill="#ffffff" font-family="'Source Code Pro', 'Source Code Pro_MSFontService', sans-serif" font-weight="400" font-size="14px" transform="translate(670.864,293)" id="text915">Region</text>
            <text fill="#ffffff" font-family="'Source Code Pro', 'Source Code Pro_MSFontService', sans-serif" font-weight="400" font-size="14px" transform="translate(720.864,293)" id="text917">”</text>
            <path d="m 599.5,131.5 c 0,-8.284 6.716,-15 15,-15 h 210 c 8.284,0 15,6.716 15,15 v 60 c 0,8.284 -6.716,15 -15,15 h -210 c -8.284,0 -15,-6.716 -15,-15 z" stroke="#ffffff" stroke-width="1.33333" stroke-miterlimit="8" fill-rule="evenodd" id="path919" />
            <text fill="#ffffff" font-family="'Source Code Pro', 'Source Code Pro_MSFontService', sans-serif" font-weight="400" font-size="14px" transform="translate(612.53,149)" id="text921">rept</text>
            <text fill="#ffffff" font-family="'Source Code Pro', 'Source Code Pro_MSFontService', sans-serif" font-weight="400" font-size="14px" transform="translate(654.197,149)" id="text923">=“Block”</text>
            <text fill="#ffffff" font-family="'Source Code Pro', 'Source Code Pro_MSFontService', sans-serif" font-weight="400" font-size="14px" transform="translate(612.53,183)" id="text925">reg</text>
            <text fill="#ffffff" font-family="'Source Code Pro', 'Source Code Pro_MSFontService', sans-serif" font-weight="400" font-size="14px" transform="translate(645.864,183)" id="text927">=</text>
            <text fill="#ffffff" font-family="'Source Code Pro', 'Source Code Pro_MSFontService', sans-serif" font-weight="400" font-size="14px" transform="translate(662.53,183)" id="text929">“</text>
            <text fill="#ffffff" font-family="'Source Code Pro', 'Source Code Pro_MSFontService', sans-serif" font-weight="400" font-size="14px" transform="translate(670.864,183)" id="text931">Region</text>
            <text fill="#ffffff" font-family="'Source Code Pro', 'Source Code Pro_MSFontService', sans-serif" font-weight="400" font-size="14px" transform="translate(720.864,183)" id="text933">”</text>
            <path d="m 599.5,370.334 c 0,-8.193 6.641,-14.834 14.834,-14.834 h 210.332 c 8.193,0 14.834,6.641 14.834,14.834 v 59.332 c 0,8.193 -6.641,14.834 -14.834,14.834 H 614.334 c -8.193,0 -14.834,-6.641 -14.834,-14.834 z" stroke="#ffffff" stroke-width="1.33333" stroke-miterlimit="8" fill-rule="evenodd" id="path935" />
            <text fill="#ffffff" font-family="'Source Code Pro', 'Source Code Pro_MSFontService', sans-serif" font-weight="400" font-size="14px" transform="translate(612.53,387)" id="text937">rept</text>
            <text fill="#ffffff" font-family="'Source Code Pro', 'Source Code Pro_MSFontService', sans-serif" font-weight="400" font-size="14px" transform="translate(654.197,387)" id="text939">= NULL</text>
            <text fill="#ffffff" font-family="'Source Code Pro', 'Source Code Pro_MSFontService', sans-serif" font-weight="400" font-size="14px" transform="translate(612.53,421)" id="text941">reg</text>
            <text fill="#ffffff" font-family="'Source Code Pro', 'Source Code Pro_MSFontService', sans-serif" font-weight="400" font-size="14px" transform="translate(645.864,421)" id="text943">= NULL</text>
            <path d="m 599.5,594.334 c 0,-8.193 6.641,-14.834 14.834,-14.834 h 210.332 c 8.193,0 14.834,6.641 14.834,14.834 v 59.332 c 0,8.193 -6.641,14.834 -14.834,14.834 H 614.334 c -8.193,0 -14.834,-6.641 -14.834,-14.834 z" stroke="#ffffff" stroke-width="1.33333" stroke-miterlimit="8" fill-rule="evenodd" id="path945" />
            <text fill="#ffffff" font-family="'Source Code Pro', 'Source Code Pro_MSFontService', sans-serif" font-weight="400" font-size="14px" transform="translate(612.53,612)" id="text947">rept</text>
            <text fill="#ffffff" font-family="'Source Code Pro', 'Source Code Pro_MSFontService', sans-serif" font-weight="400" font-size="14px" transform="translate(654.197,612)" id="text949">=</text>
            <text fill="#ffffff" font-family="'Source Code Pro', 'Source Code Pro_MSFontService', sans-serif" font-weight="400" font-size="14px" transform="translate(670.864,612)" id="text951">c(“Rep”, “Block”)</text>
            <text fill="#ffffff" font-family="'Source Code Pro', 'Source Code Pro_MSFontService', sans-serif" font-weight="400" font-size="14px" transform="translate(612.53,646)" id="text953">reg</text>
            <text fill="#ffffff" font-family="'Source Code Pro', 'Source Code Pro_MSFontService', sans-serif" font-weight="400" font-size="14px" transform="translate(645.864,646)" id="text955">= NULL</text>
            <path d="m 599.5,482.334 c 0,-8.193 6.641,-14.834 14.834,-14.834 h 210.332 c 8.193,0 14.834,6.641 14.834,14.834 v 59.332 c 0,8.193 -6.641,14.834 -14.834,14.834 H 614.334 c -8.193,0 -14.834,-6.641 -14.834,-14.834 z" stroke="#ffffff" stroke-width="1.33333" stroke-miterlimit="8" fill-rule="evenodd" id="path957" />
            <text fill="#ffffff" font-family="'Source Code Pro', 'Source Code Pro_MSFontService', sans-serif" font-weight="400" font-size="14px" transform="translate(612.53,499)" id="text959">rept</text>
            <text fill="#ffffff" font-family="'Source Code Pro', 'Source Code Pro_MSFontService', sans-serif" font-weight="400" font-size="14px" transform="translate(654.197,499)" id="text961">=</text>
            <text fill="#ffffff" font-family="'Source Code Pro', 'Source Code Pro_MSFontService', sans-serif" font-weight="400" font-size="14px" transform="translate(670.864,499)" id="text963">“Block”</text>
            <text fill="#ffffff" font-family="'Source Code Pro', 'Source Code Pro_MSFontService', sans-serif" font-weight="400" font-size="14px" transform="translate(612.53,533)" id="text965">reg</text>
            <text fill="#ffffff" font-family="'Source Code Pro', 'Source Code Pro_MSFontService', sans-serif" font-weight="400" font-size="14px" transform="translate(645.864,533)" id="text967">= NULL</text>
            <path d="m 539.503,52.1667 l 52.532,0.395 l -0.006,0.6666 l -52.531,-0.3949 z m 51.226,-3.2816 l 7.969,4.06 l -8.029,3.9397 z" id="path969" />
            <path d="m 539.5,161.167 l 52.633,0.027 l -0.001,0.666 L 539.5,161.833 Z m 51.301,-3.641 l 7.998,4.004 l -8.002,3.996 z" id="path971" />
            <path d="m 539.502,270.167 l 52.633,0.345 l -0.005,0.667 l -52.632,-0.346 z m 51.324,-3.33 l 7.973,4.052 l -8.026,3.948 z" id="path973" />
            <path d="M 5.91158e-7,-0.333333 L 52.5318,-0.33324 V 0.333427 L -5.91158e-7,0.333333 Z M 51.1984,-3.99991 l 8,4.000014987 l -8,3.999985013 z" transform="matrix(1,0,0,-1,539.5,400.5)" id="path975" />
            <path d="M 0.00184643,-0.333328 L 52.4113,-0.0430127 L 52.4076,0.623644 L -0.00184643,0.333328 Z M 51.0983,-3.71701 L 59.076,0.327244 L 51.054,4.28287 Z" transform="matrix(1,0,0,-1,539.5,511.827)" id="path977" />
            <path d="M 5.88263e-7,-0.333333 L 52.8231,-0.33324 V 0.333427 L -5.88263e-7,0.333333 Z M 51.4898,-3.99991 l 8,4.000014987 l -8,3.999985013 z" transform="matrix(1,0,0,-1,539.5,624.5)" id="path979" />
        </g>
    </g>
</svg>
