<?xml version="1.0" encoding="UTF-8" standalone="no"?>
<!-- Created with Inkscape (http://www.inkscape.org/) -->

<svg width="182.85204mm" height="139.21432mm" viewBox="0 0 182.85203 139.21432" version="1.1" id="svg2042" inkscape:version="1.1 (c68e22c387, 2021-05-23)" sodipodi:docname="desenho.svg" xmlns:inkscape="http://www.inkscape.org/namespaces/inkscape" xmlns:sodipodi="http://sodipodi.sourceforge.net/DTD/sodipodi-0.dtd" xmlns="http://www.w3.org/2000/svg" xmlns:svg="http://www.w3.org/2000/svg">
    <sodipodi:namedview id="namedview2044" pagecolor="#ffffff" bordercolor="#111111" borderopacity="1" inkscape:pageshadow="0" inkscape:pageopacity="0" inkscape:pagecheckerboard="1" inkscape:document-units="mm" showgrid="false" inkscape:zoom="0.42582772" inkscape:cx="479.06698" inkscape:cy="355.77768" inkscape:window-width="1366" inkscape:window-height="705" inkscape:window-x="-8" inkscape:window-y="140" inkscape:window-maximized="1" inkscape:current-layer="g2380" />
    <defs id="defs2039">
        <clipPath id="clip0">
            <rect x="21" y="7" width="1009" height="662" id="rect2103" />
        </clipPath>
    </defs>
    <g inkscape:label="Camada 1" inkscape:groupmode="layer" id="layer1" transform="translate(48.708956,-8.6815453)">
        <g clip-path="url(#clip0)" transform="matrix(0.26458333,0,0,0.26458333,-54.225779,6.8783661)" id="g2380">
            <g id="g3046" transform="matrix(0.73700375,0,0,0.79441033,5.4966642,1.3866538)">
                <path d="m 299.5,22.3336 c 0,-8.1923 6.641,-14.83355 14.834,-14.83355 h 210.332 c 8.193,0 14.834,6.64125 14.834,14.83355 v 59.3329 c 0,8.1923 -6.641,14.8336 -14.834,14.8336 H 314.334 c -8.193,0 -14.834,-6.6413 -14.834,-14.8336 z" stroke="#ffffff" stroke-width="1.33333" stroke-miterlimit="8" fill="#767171" fill-rule="evenodd" id="path2108" />
                <text fill="#ffffff" font-family="'Segoe UI', 'Segoe UI_MSFontService', sans-serif" font-weight="400" font-size="19px" transform="translate(344.942,58)" id="text2110">I</text>
                <text fill="#ffffff" font-family="'Segoe UI', 'Segoe UI_MSFontService', sans-serif" font-weight="400" font-size="19px" transform="translate(355.109,58)" id="text2112">have</text>
                <text fill="#ffffff" font-family="'Segoe UI', 'Segoe UI_MSFontService', sans-serif" font-weight="400" font-size="19px" transform="translate(399.002,58)" id="text2114">only</text>
                <text fill="#ffffff" font-family="'Segoe UI', 'Segoe UI_MSFontService', sans-serif" font-weight="400" font-size="19px" transform="translate(439.169,58)" id="text2116">means</text>
                <path d="m 299.5,131.5 c 0,-8.284 6.716,-15 15,-15 h 210 c 8.284,0 15,6.716 15,15 v 60 c 0,8.284 -6.716,15 -15,15 h -210 c -8.284,0 -15,-6.716 -15,-15 z" stroke="#ffffff" stroke-width="1.33333" stroke-miterlimit="8" fill="#767171" fill-rule="evenodd" id="path2118" />
                <text fill="#ffffff" font-family="'Segoe UI', 'Segoe UI_MSFontService', sans-serif" font-weight="400" font-size="19px" transform="translate(350.957,145)" id="text2120">My</text>
                <text fill="#ffffff" font-family="'Segoe UI', 'Segoe UI_MSFontService', sans-serif" font-weight="400" font-size="19px" transform="translate(381.957,145)" id="text2122">trials</text>
                <text fill="#ffffff" font-family="'Segoe UI', 'Segoe UI_MSFontService', sans-serif" font-weight="400" font-size="19px" transform="translate(426.457,145)" id="text2124">are in a</text>
                <text fill="#ffffff" font-family="'Segoe UI', 'Segoe UI_MSFontService', sans-serif" font-weight="400" font-size="19px" transform="translate(326.323,168)" id="text2126">Randomized</text>
                <text fill="#ffffff" font-family="'Segoe UI', 'Segoe UI_MSFontService', sans-serif" font-weight="400" font-size="19px" transform="translate(434.49,168)" id="text2128">complete</text>
                <text fill="#ffffff" font-family="'Segoe UI', 'Segoe UI_MSFontService', sans-serif" font-weight="400" font-size="19px" transform="translate(362.663,190)" id="text2130">blocks</text>
                <text fill="#ffffff" font-family="'Segoe UI', 'Segoe UI_MSFontService', sans-serif" font-weight="400" font-size="19px" transform="translate(420.33,190)" id="text2132">design</text>
                <path d="m 298.5,241.334 c 0,-8.193 6.641,-14.834 14.834,-14.834 h 211.333 c 8.192,0 14.833,6.641 14.833,14.834 v 59.333 c 0,8.192 -6.641,14.833 -14.833,14.833 H 313.334 c -8.193,0 -14.834,-6.641 -14.834,-14.833 z" stroke="#ffffff" stroke-width="1.33333" stroke-miterlimit="8" fill="#767171" fill-rule="evenodd" id="path2134" />
                <text fill="#ffffff" font-family="'Segoe UI', 'Segoe UI_MSFontService', sans-serif" font-weight="400" font-size="19px" transform="translate(321.328,266)" id="text2136">My</text>
                <text fill="#ffffff" font-family="'Segoe UI', 'Segoe UI_MSFontService', sans-serif" font-weight="400" font-size="19px" transform="translate(352.328,266)" id="text2138">trials</text>
                <text fill="#ffffff" font-family="'Segoe UI', 'Segoe UI_MSFontService', sans-serif" font-weight="400" font-size="19px" transform="translate(396.828,266)" id="text2140">are in a</text>
                <text fill="#ffffff" font-family="'Segoe UI', 'Segoe UI_MSFontService', sans-serif" font-weight="400" font-size="19px" transform="translate(462.415,266)" id="text2142">Lattice</text>
                <text fill="#ffffff" font-family="'Segoe UI', 'Segoe UI_MSFontService', sans-serif" font-weight="400" font-size="19px" transform="translate(391.455,289)" id="text2144">design</text>
                <path d="m 21.5001,135.5 c 0,-7.18 5.8204,-13 13.0003,-13 H 212.5 c 7.18,0 13,5.82 13,13 v 52 c 0,7.18 -5.82,13 -13,13 H 34.5004 c -7.1799,0 -13.0003,-5.82 -13.0003,-13 z" stroke="#000000" stroke-width="1.33333" stroke-miterlimit="8" fill="#d0cece" fill-rule="evenodd" id="path2146" />
                <text font-family="'Segoe UI', 'Segoe UI_MSFontService', sans-serif" font-weight="400" font-size="19px" transform="translate(67.2802,157)" id="text2148">I</text>
                <text font-family="'Segoe UI', 'Segoe UI_MSFontService', sans-serif" font-weight="400" font-size="19px" transform="translate(77.4468,157)" id="text2150">have</text>
                <text font-family="'Segoe UI', 'Segoe UI_MSFontService', sans-serif" font-weight="400" font-size="19px" transform="translate(121.34,157)" id="text2152">Region</text>
                <text font-family="'Segoe UI', 'Segoe UI_MSFontService', sans-serif" font-weight="400" font-size="19px" transform="translate(74.9868,180)" id="text2154">information</text>
                <path d="m 21.5001,486.5 c 0,-7.18 5.8204,-13 13.0003,-13 H 212.5 c 7.18,0 13,5.82 13,13 v 52 c 0,7.18 -5.82,13 -13,13 H 34.5004 c -7.1799,0 -13.0003,-5.82 -13.0003,-13 z" stroke="#000000" stroke-width="1.33333" stroke-miterlimit="8" fill="#d0cece" fill-rule="evenodd" id="path2156" />
                <text font-family="Calibri, Calibri_MSFontService, sans-serif" font-weight="400" font-size="19px" transform="translate(45.4569,507)" id="text2158">I do</text>
                <text font-family="Calibri, Calibri_MSFontService, sans-serif" font-weight="400" font-size="19px" transform="translate(78.1235,507)" id="text2160">not</text>
                <text font-family="Calibri, Calibri_MSFontService, sans-serif" font-weight="400" font-size="19px" transform="translate(108.29,507)" id="text2162">have</text>
                <text font-family="Calibri, Calibri_MSFontService, sans-serif" font-weight="400" font-size="19px" transform="translate(148.637,507)" id="text2164">Region</text>
                <text font-family="Calibri, Calibri_MSFontService, sans-serif" font-weight="400" font-size="19px" transform="translate(78.2169,530)" id="text2166">information</text>
                <path d="M 0,-0.333333 H 36.9896 V 109.395 l -0.3333,-0.333 h 29.9896 v 0.667 H 36.3229 V 0 l 0.3334,0.333333 H 0 Z M 65.3125,105.395 l 8,4 l -8,4 z" transform="matrix(1,0,0,-1,225.5,161.896)" id="path2168" />
                <path d="m 225.5,161.167 h 36.939 v 109.864 l -0.333,-0.333 h 29.939 v 0.666 H 261.773 V 161.5 l 0.333,0.333 H 225.5 Z m 65.212,105.864 l 8,4 l -8,4 z" id="path2170" />
                <path d="m 225.5,161.167 h 66.636 v 0.666 H 225.5 Z m 65.302,-3.667 l 8,4 l -8,4 z" id="path2172" />
                <path d="m 299.5,370.334 c 0,-8.193 6.641,-14.834 14.834,-14.834 h 210.332 c 8.193,0 14.834,6.641 14.834,14.834 v 59.332 c 0,8.193 -6.641,14.834 -14.834,14.834 H 314.334 c -8.193,0 -14.834,-6.641 -14.834,-14.834 z" stroke="#ffffff" stroke-width="1.33333" stroke-miterlimit="8" fill="#767171" fill-rule="evenodd" id="path2174" />
                <text fill="#ffffff" font-family="'Segoe UI', 'Segoe UI_MSFontService', sans-serif" font-weight="400" font-size="19px" transform="translate(344.942,406)" id="text2176">I</text>
                <text fill="#ffffff" font-family="'Segoe UI', 'Segoe UI_MSFontService', sans-serif" font-weight="400" font-size="19px" transform="translate(355.109,406)" id="text2178">have</text>
                <text fill="#ffffff" font-family="'Segoe UI', 'Segoe UI_MSFontService', sans-serif" font-weight="400" font-size="19px" transform="translate(399.002,406)" id="text2180">only</text>
                <text fill="#ffffff" font-family="'Segoe UI', 'Segoe UI_MSFontService', sans-serif" font-weight="400" font-size="19px" transform="translate(439.169,406)" id="text2182">means</text>
                <path d="m 299.5,482.334 c 0,-8.193 6.641,-14.834 14.834,-14.834 h 210.332 c 8.193,0 14.834,6.641 14.834,14.834 v 59.332 c 0,8.193 -6.641,14.834 -14.834,14.834 H 314.334 c -8.193,0 -14.834,-6.641 -14.834,-14.834 z" stroke="#ffffff" stroke-width="1.33333" stroke-miterlimit="8" fill="#767171" fill-rule="evenodd" id="path2184" />
                <text fill="#ffffff" font-family="'Segoe UI', 'Segoe UI_MSFontService', sans-serif" font-weight="400" font-size="19px" transform="translate(351.18,496)" id="text2186">My</text>
                <text fill="#ffffff" font-family="'Segoe UI', 'Segoe UI_MSFontService', sans-serif" font-weight="400" font-size="19px" transform="translate(382.18,496)" id="text2188">trials</text>
                <text fill="#ffffff" font-family="'Segoe UI', 'Segoe UI_MSFontService', sans-serif" font-weight="400" font-size="19px" transform="translate(426.68,496)" id="text2190">are in a</text>
                <text fill="#ffffff" font-family="'Segoe UI', 'Segoe UI_MSFontService', sans-serif" font-weight="400" font-size="19px" transform="translate(326.546,519)" id="text2192">Randomized</text>
                <text fill="#ffffff" font-family="'Segoe UI', 'Segoe UI_MSFontService', sans-serif" font-weight="400" font-size="19px" transform="translate(434.713,519)" id="text2194">complete</text>
                <text fill="#ffffff" font-family="'Segoe UI', 'Segoe UI_MSFontService', sans-serif" font-weight="400" font-size="19px" transform="translate(362.886,541)" id="text2196">blocks</text>
                <text fill="#ffffff" font-family="'Segoe UI', 'Segoe UI_MSFontService', sans-serif" font-weight="400" font-size="19px" transform="translate(420.553,541)" id="text2198">design</text>
                <path d="m 298.5,594.334 c 0,-8.193 6.641,-14.834 14.834,-14.834 h 211.333 c 8.192,0 14.833,6.641 14.833,14.834 v 59.333 c 0,8.192 -6.641,14.833 -14.833,14.833 H 313.334 c -8.193,0 -14.834,-6.641 -14.834,-14.833 z" stroke="#ffffff" stroke-width="1.33333" stroke-miterlimit="8" fill="#767171" fill-rule="evenodd" id="path2200" />
                <text fill="#ffffff" font-family="'Segoe UI', 'Segoe UI_MSFontService', sans-serif" font-weight="400" font-size="19px" transform="translate(321.138,619)" id="text2202">My</text>
                <text fill="#ffffff" font-family="'Segoe UI', 'Segoe UI_MSFontService', sans-serif" font-weight="400" font-size="19px" transform="translate(352.138,619)" id="text2204">trials</text>
                <text fill="#ffffff" font-family="'Segoe UI', 'Segoe UI_MSFontService', sans-serif" font-weight="400" font-size="19px" transform="translate(396.638,619)" id="text2206">are in a</text>
                <text fill="#ffffff" font-family="'Segoe UI', 'Segoe UI_MSFontService', sans-serif" font-weight="400" font-size="19px" transform="translate(462.224,619)" id="text2208">Lattice</text>
                <text fill="#ffffff" font-family="'Segoe UI', 'Segoe UI_MSFontService', sans-serif" font-weight="400" font-size="19px" transform="translate(391.264,642)" id="text2210">design</text>
                <path d="M 0,-0.333333 H 36.9896 V 112.36 l -0.3333,-0.333 h 29.9896 v 0.666 H 36.3229 V 0 l 0.3334,0.333333 H 0 Z M 65.3125,108.36 l 8,4 l -8,4 z" transform="matrix(1,0,0,-1,225.5,512.86)" id="path2212" />
                <path d="m 225.5,512.167 h 36.844 v 112.242 l -0.333,-0.333 h 29.844 v 0.667 H 261.677 V 512.5 l 0.334,0.333 H 225.5 Z m 65.021,108.242 l 8,4 l -8,4 z" id="path2214" />
                <path d="M 0.00202235,-0.333327 L 66.8606,0.0723151 L 66.8566,0.73897 L -0.00202235,0.333327 Z M 65.5496,-3.60237 l 7.9755,4.048459 L 65.501,4.39748 Z" transform="matrix(1,0,0,-1,225.5,511.946)" id="path2216" />
                <path d="m 599.4421,22.444929 c 0,-8.285752 5.59912,-15.0027781 12.50549,-15.0027781 H 945.4272 c 6.90303,0 12.50549,6.7170261 12.50549,15.0027781 V 82.45514 c 0,8.285851 -5.60246,15.002828 -12.50549,15.002828 H 611.94759 c -6.90637,0 -12.50549,-6.716977 -12.50549,-15.002828 z" stroke="#ffffff" stroke-width="1.21753" stroke-miterlimit="8" fill-rule="evenodd" id="path2218" />
                <text fill="#ffffff" font-family="'Source Code Pro', 'Source Code Pro_MSFontService', sans-serif" font-weight="400" font-size="14px" transform="translate(612.53,31)" id="text2220">rept</text>
                <text fill="#ffffff" font-family="'Source Code Pro', 'Source Code Pro_MSFontService', sans-serif" font-weight="400" font-size="14px" id="text2222" x="646.30939" y="31.415136">= NULL</text>
                <text fill="#ffffff" font-family="'Source Code Pro', 'Source Code Pro_MSFontService', sans-serif" font-weight="400" font-size="14px" transform="translate(612.53,65)" id="text2224">reg</text>
                <text fill="#ffffff" font-family="'Source Code Pro', 'Source Code Pro_MSFontService', sans-serif" font-weight="400" font-size="14px" id="text2226" x="647.10944" y="65">=</text>
                <text fill="#ffffff" font-family="'Source Code Pro', 'Source Code Pro_MSFontService', sans-serif" font-weight="400" font-size="14px" id="text2228" x="663.66302" y="65">list</text>
                <text fill="#ffffff" font-family="'Source Code Pro', 'Source Code Pro_MSFontService', sans-serif" font-weight="400" font-size="14px" id="text2230" x="685.86401" y="65">(c(“</text>
                <text fill="#ffffff" font-family="'Source Code Pro', 'Source Code Pro_MSFontService', sans-serif" font-weight="400" font-size="14px" id="text2232" x="711.19702" y="65">Region</text>
                <text fill="#ffffff" font-family="'Source Code Pro', 'Source Code Pro_MSFontService', sans-serif" font-weight="400" font-size="14px" id="text2234" x="759.19702" y="65">”, “Prior”, “</text>
                <text fill="#ffffff" font-family="'Source Code Pro', 'Source Code Pro_MSFontService', sans-serif" font-weight="400" font-size="14px" id="text2236" x="835.53003" y="65">hyperprior</text>
                <text fill="#ffffff" font-family="'Source Code Pro', 'Source Code Pro_MSFontService', sans-serif" font-weight="400" font-size="14px" id="text2238" x="908.86401" y="65">”),</text>
                <text fill="#ffffff" font-family="'Source Code Pro', 'Source Code Pro_MSFontService', sans-serif" font-weight="400" font-size="14px" id="text2240" x="692.86401" y="82">c(“Prior”, “</text>
                <text fill="#ffffff" font-family="'Source Code Pro', 'Source Code Pro_MSFontService', sans-serif" font-weight="400" font-size="14px" id="text2242" x="766.86401" y="82">hyperprior</text>
                <text fill="#ffffff" font-family="'Source Code Pro', 'Source Code Pro_MSFontService', sans-serif" font-weight="400" font-size="14px" id="text2244" x="840.19702" y="82">”))</text>
                <path d="m 599.4421,241.31707 c 0,-8.19444 5.5366,-14.8366 12.36709,-14.8366 h 333.75974 c 6.828,0 12.36376,6.64216 12.36376,14.8366 v 59.34239 c 0,8.19443 -5.53576,14.8366 -12.36376,14.8366 H 611.80919 c -6.83049,0 -12.36709,-6.64217 -12.36709,-14.8366 z" stroke="#ffffff" stroke-width="1.21753" stroke-miterlimit="8" fill-rule="evenodd" id="path2246" />
                <text fill="#ffffff" font-family="'Source Code Pro', 'Source Code Pro_MSFontService', sans-serif" font-weight="400" font-size="14px" id="text2248" x="610.53003" y="242">rept</text>
                <text fill="#ffffff" font-family="'Source Code Pro', 'Source Code Pro_MSFontService', sans-serif" font-weight="400" font-size="14px" id="text2250" x="645.86505" y="242">=</text>
                <text fill="#ffffff" font-family="'Source Code Pro', 'Source Code Pro_MSFontService', sans-serif" font-weight="400" font-size="14px" id="text2252" x="660.86401" y="242">list</text>
                <text fill="#ffffff" font-family="'Source Code Pro', 'Source Code Pro_MSFontService', sans-serif" font-weight="400" font-size="14px" id="text2254" x="682.19702" y="242">(c(“Rep”, “Prior”, “</text>
                <text fill="#ffffff" font-family="'Source Code Pro', 'Source Code Pro_MSFontService', sans-serif" font-weight="400" font-size="14px" id="text2256" x="810.86401" y="242">hyperprior</text>
                <text fill="#ffffff" font-family="'Source Code Pro', 'Source Code Pro_MSFontService', sans-serif" font-weight="400" font-size="14px" id="text2258" x="884.19702" y="242">”),</text>
                <text fill="#ffffff" font-family="'Source Code Pro', 'Source Code Pro_MSFontService', sans-serif" font-weight="400" font-size="14px" transform="translate(725.197,259)" id="text2260">c(“Block”, “Prior”, “</text>
                <text fill="#ffffff" font-family="'Source Code Pro', 'Source Code Pro_MSFontService', sans-serif" font-weight="400" font-size="14px" id="text2262" x="858.19702" y="259">hyperprior</text>
                <text fill="#ffffff" font-family="'Source Code Pro', 'Source Code Pro_MSFontService', sans-serif" font-weight="400" font-size="14px" id="text2264" x="931.53003" y="259">”))</text>
                <text fill="#ffffff" font-family="'Source Code Pro', 'Source Code Pro_MSFontService', sans-serif" font-weight="400" font-size="14px" transform="translate(612.53,293)" id="text2266">reg</text>
                <text fill="#ffffff" font-family="'Source Code Pro', 'Source Code Pro_MSFontService', sans-serif" font-weight="400" font-size="14px" transform="translate(645.864,293)" id="text2268">=</text>
                <text fill="#ffffff" font-family="'Source Code Pro', 'Source Code Pro_MSFontService', sans-serif" font-weight="400" font-size="14px" transform="translate(662.53,293)" id="text2270">list</text>
                <text fill="#ffffff" font-family="'Source Code Pro', 'Source Code Pro_MSFontService', sans-serif" font-weight="400" font-size="14px" id="text2272" x="683.86401" y="293">(c(“</text>
                <text fill="#ffffff" font-family="'Source Code Pro', 'Source Code Pro_MSFontService', sans-serif" font-weight="400" font-size="14px" id="text2274" x="709.19702" y="293">Region</text>
                <text fill="#ffffff" font-family="'Source Code Pro', 'Source Code Pro_MSFontService', sans-serif" font-weight="400" font-size="14px" id="text2276" x="755.19702" y="293">”, “Prior”, “</text>
                <text fill="#ffffff" font-family="'Source Code Pro', 'Source Code Pro_MSFontService', sans-serif" font-weight="400" font-size="14px" id="text2278" x="831.53003" y="293">hyperprior</text>
                <text fill="#ffffff" font-family="'Source Code Pro', 'Source Code Pro_MSFontService', sans-serif" font-weight="400" font-size="14px" id="text2280" x="904.86401" y="293">”),</text>
                <text fill="#ffffff" font-family="'Source Code Pro', 'Source Code Pro_MSFontService', sans-serif" font-weight="400" font-size="14px" id="text2282" x="690.86401" y="309">c(“Prior”, “</text>
                <text fill="#ffffff" font-family="'Source Code Pro', 'Source Code Pro_MSFontService', sans-serif" font-weight="400" font-size="14px" id="text2284" x="764.86401" y="309">hyperprior</text>
                <text fill="#ffffff" font-family="'Source Code Pro', 'Source Code Pro_MSFontService', sans-serif" font-weight="400" font-size="14px" id="text2286" x="838.19702" y="309">”))</text>
                <path d="m 599.4421,131.46382 c 0,-8.28545 5.59912,-15.00262 12.50549,-15.00262 H 945.4272 c 6.90303,0 12.50549,6.71717 12.50549,15.00262 v 60.01052 c 0,8.28545 -5.60246,15.00262 -12.50549,15.00262 H 611.94759 c -6.90637,0 -12.50549,-6.71717 -12.50549,-15.00262 z" stroke="#ffffff" stroke-width="1.21753" stroke-miterlimit="8" fill-rule="evenodd" id="path2288" />
                <text fill="#ffffff" font-family="'Source Code Pro', 'Source Code Pro_MSFontService', sans-serif" font-weight="400" font-size="14px" transform="translate(612.53,140)" id="text2290">rept</text>
                <text fill="#ffffff" font-family="'Source Code Pro', 'Source Code Pro_MSFontService', sans-serif" font-weight="400" font-size="14px" id="text2292" x="646.19702" y="140">= c(“Block”, “Prior”, “</text>
                <text fill="#ffffff" font-family="'Source Code Pro', 'Source Code Pro_MSFontService', sans-serif" font-weight="400" font-size="14px" id="text2294" x="795.86401" y="140">hyperprior</text>
                <text fill="#ffffff" font-family="'Source Code Pro', 'Source Code Pro_MSFontService', sans-serif" font-weight="400" font-size="14px" id="text2296" x="869.19702" y="140">”)</text>
                <text fill="#ffffff" font-family="'Source Code Pro', 'Source Code Pro_MSFontService', sans-serif" font-weight="400" font-size="14px" id="text2298" x="616.53003" y="174">reg</text>
                <text fill="#ffffff" font-family="'Source Code Pro', 'Source Code Pro_MSFontService', sans-serif" font-weight="400" font-size="14px" id="text2300" x="646.48669" y="174">=</text>
                <text fill="#ffffff" font-family="'Source Code Pro', 'Source Code Pro_MSFontService', sans-serif" font-weight="400" font-size="14px" transform="translate(662.53,174)" id="text2302">list</text>
                <text fill="#ffffff" font-family="'Source Code Pro', 'Source Code Pro_MSFontService', sans-serif" font-weight="400" font-size="14px" id="text2304" x="685.86401" y="174">(c(“</text>
                <text fill="#ffffff" font-family="'Source Code Pro', 'Source Code Pro_MSFontService', sans-serif" font-weight="400" font-size="14px" id="text2306" x="711.19702" y="174">Region</text>
                <text fill="#ffffff" font-family="'Source Code Pro', 'Source Code Pro_MSFontService', sans-serif" font-weight="400" font-size="14px" id="text2308" x="757.19702" y="174">”, “Prior”, “</text>
                <text fill="#ffffff" font-family="'Source Code Pro', 'Source Code Pro_MSFontService', sans-serif" font-weight="400" font-size="14px" id="text2310" x="833.53003" y="174">hyperprior</text>
                <text fill="#ffffff" font-family="'Source Code Pro', 'Source Code Pro_MSFontService', sans-serif" font-weight="400" font-size="14px" id="text2312" x="906.86401" y="174">”),</text>
                <text fill="#ffffff" font-family="'Source Code Pro', 'Source Code Pro_MSFontService', sans-serif" font-weight="400" font-size="14px" id="text2314" x="692.86401" y="191">c(“Prior”, “</text>
                <text fill="#ffffff" font-family="'Source Code Pro', 'Source Code Pro_MSFontService', sans-serif" font-weight="400" font-size="14px" id="text2316" x="766.86401" y="191">hyperprior</text>
                <text fill="#ffffff" font-family="'Source Code Pro', 'Source Code Pro_MSFontService', sans-serif" font-weight="400" font-size="14px" id="text2318" x="840.19702" y="191">”))</text>
                <path d="m 599.4421,370.33966 c 0,-8.19443 5.5366,-14.83659 12.36709,-14.83659 h 333.75974 c 6.828,0 12.36376,6.64216 12.36376,14.83659 v 59.3424 c 0,8.19443 -5.53576,14.8366 -12.36376,14.8366 H 611.80919 c -6.83049,0 -12.36709,-6.64217 -12.36709,-14.8366 z" stroke="#ffffff" stroke-width="1.21753" stroke-miterlimit="8" fill-rule="evenodd" id="path2320" />
                <text fill="#ffffff" font-family="'Source Code Pro', 'Source Code Pro_MSFontService', sans-serif" font-weight="400" font-size="14px" transform="translate(612.53,387)" id="text2322">rept</text>
                <text fill="#ffffff" font-family="'Source Code Pro', 'Source Code Pro_MSFontService', sans-serif" font-weight="400" font-size="14px" id="text2324" x="645.86505" y="387">= NULL</text>
                <text fill="#ffffff" font-family="'Source Code Pro', 'Source Code Pro_MSFontService', sans-serif" font-weight="400" font-size="14px" transform="translate(612.53,421)" id="text2326">reg</text>
                <text fill="#ffffff" font-family="'Source Code Pro', 'Source Code Pro_MSFontService', sans-serif" font-weight="400" font-size="14px" transform="translate(645.864,421)" id="text2328">= NULL</text>
                <path d="m 599.4421,594.37891 c 0,-8.19444 5.5366,-14.8366 12.36709,-14.8366 h 333.75974 c 6.828,0 12.36376,6.64216 12.36376,14.8366 v 59.34239 c 0,8.19444 -5.53576,14.8366 -12.36376,14.8366 H 611.80919 c -6.83049,0 -12.36709,-6.64216 -12.36709,-14.8366 z" stroke="#ffffff" stroke-width="1.21753" stroke-miterlimit="8" fill-rule="evenodd" id="path2330" />
                <text fill="#ffffff" font-family="'Source Code Pro', 'Source Code Pro_MSFontService', sans-serif" font-weight="400" font-size="14px" transform="translate(612.53,603)" id="text2332">rept</text>
                <text fill="#ffffff" font-family="'Source Code Pro', 'Source Code Pro_MSFontService', sans-serif" font-weight="400" font-size="14px" id="text2334" x="646.19702" y="603">=</text>
                <text fill="#ffffff" font-family="'Source Code Pro', 'Source Code Pro_MSFontService', sans-serif" font-weight="400" font-size="14px" id="text2336" x="658.86401" y="603">list</text>
                <text fill="#ffffff" font-family="'Source Code Pro', 'Source Code Pro_MSFontService', sans-serif" font-weight="400" font-size="14px" id="text2338" x="680.19702" y="603">(c(“Rep”, “Prior”, “</text>
                <text fill="#ffffff" font-family="'Source Code Pro', 'Source Code Pro_MSFontService', sans-serif" font-weight="400" font-size="14px" id="text2340" x="808.86401" y="603">hyperprior</text>
                <text fill="#ffffff" font-family="'Source Code Pro', 'Source Code Pro_MSFontService', sans-serif" font-weight="400" font-size="14px" id="text2342" x="882.19702" y="603">”),</text>
                <text fill="#ffffff" font-family="'Source Code Pro', 'Source Code Pro_MSFontService', sans-serif" font-weight="400" font-size="14px" id="text2344" x="687.19702" y="620">c(“Block”, “Prior”, “</text>
                <text fill="#ffffff" font-family="'Source Code Pro', 'Source Code Pro_MSFontService', sans-serif" font-weight="400" font-size="14px" id="text2346" x="820.19702" y="620">hyperprior</text>
                <text fill="#ffffff" font-family="'Source Code Pro', 'Source Code Pro_MSFontService', sans-serif" font-weight="400" font-size="14px" id="text2348" x="893.53003" y="620">”))</text>
                <text fill="#ffffff" font-family="'Source Code Pro', 'Source Code Pro_MSFontService', sans-serif" font-weight="400" font-size="14px" transform="translate(612.53,654)" id="text2350">reg</text>
                <text fill="#ffffff" font-family="'Source Code Pro', 'Source Code Pro_MSFontService', sans-serif" font-weight="400" font-size="14px" transform="translate(645.864,654)" id="text2352">= NULL</text>
                <path d="m 599.4421,482.35929 c 0,-8.19444 5.5366,-14.8366 12.36709,-14.8366 h 333.75974 c 6.828,0 12.36376,6.64216 12.36376,14.8366 v 59.34239 c 0,8.19443 -5.53576,14.8366 -12.36376,14.8366 H 611.80919 c -6.83049,0 -12.36709,-6.64217 -12.36709,-14.8366 z" stroke="#ffffff" stroke-width="1.21753" stroke-miterlimit="8" fill-rule="evenodd" id="path2354" />
                <text fill="#ffffff" font-family="'Source Code Pro', 'Source Code Pro_MSFontService', sans-serif" font-weight="400" font-size="14px" transform="translate(612.53,499)" id="text2356">rept</text>
                <text fill="#ffffff" font-family="'Source Code Pro', 'Source Code Pro_MSFontService', sans-serif" font-weight="400" font-size="14px" id="text2358" x="646.19702" y="499">= c(“Block”, “Prior”, “</text>
                <text fill="#ffffff" font-family="'Source Code Pro', 'Source Code Pro_MSFontService', sans-serif" font-weight="400" font-size="14px" id="text2360" x="795.86401" y="499">hyperprior</text>
                <text fill="#ffffff" font-family="'Source Code Pro', 'Source Code Pro_MSFontService', sans-serif" font-weight="400" font-size="14px" id="text2362" x="869.19702" y="499">”)</text>
                <text fill="#ffffff" font-family="'Source Code Pro', 'Source Code Pro_MSFontService', sans-serif" font-weight="400" font-size="14px" transform="translate(612.53,533)" id="text2364">reg</text>
                <text fill="#ffffff" font-family="'Source Code Pro', 'Source Code Pro_MSFontService', sans-serif" font-weight="400" font-size="14px" transform="translate(645.864,533)" id="text2366">= NULL</text>
                <path d="m 539.503,52.1667 l 52.532,0.395 l -0.006,0.6666 l -52.531,-0.3949 z m 51.226,-3.2816 l 7.969,4.06 l -8.029,3.9397 z" id="path2368" />
                <path d="m 539.5,161.167 l 52.633,0.027 l -0.001,0.666 L 539.5,161.833 Z m 51.301,-3.641 l 7.998,4.004 l -8.002,3.996 z" id="path2370" />
                <path d="m 539.502,270.167 l 52.633,0.345 l -0.005,0.667 l -52.632,-0.346 z m 51.324,-3.33 l 7.973,4.052 l -8.026,3.948 z" id="path2372" />
                <path d="M 5.91158e-7,-0.333333 L 52.5318,-0.33324 V 0.333427 L -5.91158e-7,0.333333 Z M 51.1984,-3.99991 l 8,4.000014987 l -8,3.999985013 z" transform="matrix(1,0,0,-1,539.5,400.5)" id="path2374" />
                <path d="M 0.00184643,-0.333328 L 52.4113,-0.0430127 L 52.4076,0.623644 L -0.00184643,0.333328 Z M 51.0983,-3.71701 L 59.076,0.327244 L 51.054,4.28287 Z" transform="matrix(1,0,0,-1,539.5,511.827)" id="path2376" />
                <path d="M 5.88263e-7,-0.333333 L 52.8231,-0.33324 V 0.333427 L -5.88263e-7,0.333333 Z M 51.4898,-3.99991 l 8,4.000014987 l -8,3.999985013 z" transform="matrix(1,0,0,-1,539.5,624.5)" id="path2378" />
            </g>
        </g>
    </g>
</svg>
