<?xml version="1.0" encoding="UTF-8" standalone="no"?>
<!-- Created with Inkscape (http://www.inkscape.org/) -->

<svg width="182.85204mm" height="139.21432mm" viewBox="0 0 182.85203 139.21432" version="1.1" id="svg2042" inkscape:version="1.1 (c68e22c387, 2021-05-23)" sodipodi:docname="desenho.svg" xmlns:inkscape="http://www.inkscape.org/namespaces/inkscape" xmlns:sodipodi="http://sodipodi.sourceforge.net/DTD/sodipodi-0.dtd" xmlns="http://www.w3.org/2000/svg" xmlns:svg="http://www.w3.org/2000/svg">
    <sodipodi:namedview id="namedview2044" pagecolor="#ffffff" bordercolor="#111111" borderopacity="1" inkscape:pageshadow="0" inkscape:pageopacity="0" inkscape:pagecheckerboard="1" inkscape:document-units="mm" showgrid="false" inkscape:zoom="0.60221134" inkscape:cx="241.60953" inkscape:cy="296.40757" inkscape:window-width="1366" inkscape:window-height="705" inkscape:window-x="-8" inkscape:window-y="-8" inkscape:window-maximized="1" inkscape:current-layer="g2380" />
    <defs id="defs2039">
        <clipPath id="clip0">
            <rect x="21" y="7" width="1009" height="662" id="rect2103" />
        </clipPath>
    </defs>
    <g inkscape:label="Camada 1" inkscape:groupmode="layer" id="layer1" transform="translate(48.708956,-8.6815453)">
        <g clip-path="url(#clip0)" transform="matrix(0.26458333,0,0,0.26458333,-54.225779,6.8783661)" id="g2380">
            <path d="m 226.22929,19.128696 c 0,-6.508047 4.89444,-11.783925 10.93271,-11.783925 h 155.01547 c 6.03828,0 10.93272,5.275878 10.93272,11.783925 v 47.134669 c 0,6.508048 -4.89444,11.783965 -10.93272,11.783965 H 237.162 c -6.03827,0 -10.93271,-5.275917 -10.93271,-11.783965 z" stroke="#ffffff" stroke-width="1.02022" stroke-miterlimit="8" fill="#767171" fill-rule="evenodd" id="path2108" />
            <text fill="#ffffff" font-family="'Segoe UI', 'Segoe UI_MSFontService', sans-serif" font-weight="400" font-size="14.5382px" transform="scale(0.96319098,1.0382157)" id="text2110" x="269.6456" y="45.715408" style="stroke-width:0.765169">I</text>
            <text fill="#ffffff" font-family="'Segoe UI', 'Segoe UI_MSFontService', sans-serif" font-weight="400" font-size="14.5382px" transform="scale(0.96319098,1.0382157)" id="text2112" x="277.42508" y="45.715408" style="stroke-width:0.765169">have</text>
            <text fill="#ffffff" font-family="'Segoe UI', 'Segoe UI_MSFontService', sans-serif" font-weight="400" font-size="14.5382px" transform="scale(0.96319098,1.0382157)" id="text2114" x="311.01062" y="45.715408" style="stroke-width:0.765169">only</text>
            <text fill="#ffffff" font-family="'Segoe UI', 'Segoe UI_MSFontService', sans-serif" font-weight="400" font-size="14.5382px" transform="scale(0.96319098,1.0382157)" id="text2116" x="341.74518" y="45.715408" style="stroke-width:0.765169">means</text>
            <path d="m 226.22929,105.85161 c 0,-6.580893 4.94971,-11.916153 11.05505,-11.916153 h 154.77079 c 6.10534,0 11.05506,5.33526 11.05506,11.916153 v 47.66462 c 0,6.5809 -4.94972,11.91616 -11.05506,11.91616 H 237.28434 c -6.10534,0 -11.05505,-5.33526 -11.05505,-11.91616 z" stroke="#ffffff" stroke-width="1.02022" stroke-miterlimit="8" fill="#767171" fill-rule="evenodd" id="path2118" />
            <text fill="#ffffff" font-family="'Segoe UI', 'Segoe UI_MSFontService', sans-serif" font-weight="400" font-size="14.5382px" transform="scale(0.96319098,1.0382157)" id="text2120" x="274.24811" y="112.2851" style="stroke-width:0.765169">My</text>
            <text fill="#ffffff" font-family="'Segoe UI', 'Segoe UI_MSFontService', sans-serif" font-weight="400" font-size="14.5382px" transform="scale(0.96319098,1.0382157)" id="text2122" x="297.96832" y="112.2851" style="stroke-width:0.765169">trials</text>
            <text fill="#ffffff" font-family="'Segoe UI', 'Segoe UI_MSFontService', sans-serif" font-weight="400" font-size="14.5382px" transform="scale(0.96319098,1.0382157)" id="text2124" x="332.01834" y="112.2851" style="stroke-width:0.765169">are in a</text>
            <text fill="#ffffff" font-family="'Segoe UI', 'Segoe UI_MSFontService', sans-serif" font-weight="400" font-size="14.5382px" transform="scale(0.96319098,1.0382157)" id="text2126" x="255.39893" y="129.88399" style="stroke-width:0.765169">Randomized</text>
            <text fill="#ffffff" font-family="'Segoe UI', 'Segoe UI_MSFontService', sans-serif" font-weight="400" font-size="14.5382px" transform="scale(0.96319098,1.0382157)" id="text2128" x="338.16495" y="129.88399" style="stroke-width:0.765169">complete</text>
            <text fill="#ffffff" font-family="'Segoe UI', 'Segoe UI_MSFontService', sans-serif" font-weight="400" font-size="14.5382px" transform="scale(0.96319098,1.0382157)" id="text2130" x="283.20517" y="146.7177" style="stroke-width:0.765169">blocks</text>
            <text fill="#ffffff" font-family="'Segoe UI', 'Segoe UI_MSFontService', sans-serif" font-weight="400" font-size="14.5382px" transform="scale(0.96319098,1.0382157)" id="text2132" x="327.33014" y="146.7177" style="stroke-width:0.765169">design</text>
            <path d="m 225.49228,193.10488 c 0,-6.50861 4.89445,-11.78429 10.93272,-11.78429 h 155.75321 c 6.03754,0 10.93198,5.27568 10.93198,11.78429 v 47.13474 c 0,6.50781 -4.89444,11.78349 -10.93198,11.78349 H 236.425 c -6.03827,0 -10.93272,-5.27568 -10.93272,-11.78349 z" stroke="#ffffff" stroke-width="1.02022" stroke-miterlimit="8" fill="#767171" fill-rule="evenodd" id="path2134" />
            <text fill="#ffffff" font-family="'Segoe UI', 'Segoe UI_MSFontService', sans-serif" font-weight="400" font-size="14.5382px" transform="scale(0.96319098,1.0382157)" id="text2136" x="251.5769" y="204.87053" style="stroke-width:0.765169">My</text>
            <text fill="#ffffff" font-family="'Segoe UI', 'Segoe UI_MSFontService', sans-serif" font-weight="400" font-size="14.5382px" transform="scale(0.96319098,1.0382157)" id="text2138" x="275.29715" y="204.87053" style="stroke-width:0.765169">trials</text>
            <text fill="#ffffff" font-family="'Segoe UI', 'Segoe UI_MSFontService', sans-serif" font-weight="400" font-size="14.5382px" transform="scale(0.96319098,1.0382157)" id="text2140" x="309.34717" y="204.87053" style="stroke-width:0.765169">are in a</text>
            <text fill="#ffffff" font-family="'Segoe UI', 'Segoe UI_MSFontService', sans-serif" font-weight="400" font-size="14.5382px" transform="scale(0.96319098,1.0382157)" id="text2142" x="359.53229" y="204.87053" style="stroke-width:0.765169">Lattice</text>
            <text fill="#ffffff" font-family="'Segoe UI', 'Segoe UI_MSFontService', sans-serif" font-weight="400" font-size="14.5382px" transform="scale(0.96319098,1.0382157)" id="text2144" x="305.2359" y="222.46942" style="stroke-width:0.765169">design</text>
            <path d="m 21.342319,109.02925 c 0,-5.70386 4.289656,-10.327331 9.581269,-10.327331 H 162.10996 c 5.29169,0 9.58105,4.623471 9.58105,10.327331 v 41.30934 c 0,5.70387 -4.28936,10.32733 -9.58105,10.32733 H 30.923588 c -5.291613,0 -9.581269,-4.62346 -9.581269,-10.32733 z" stroke="#000000" stroke-width="1.02022" stroke-miterlimit="8" fill="#d0cece" fill-rule="evenodd" id="path2146" />
            <text font-family="'Segoe UI', 'Segoe UI_MSFontService', sans-serif" font-weight="400" font-size="14.5382px" transform="scale(0.96319098,1.0382157)" id="text2148" x="57.187439" y="121.46712" style="stroke-width:0.765169">I</text>
            <text font-family="'Segoe UI', 'Segoe UI_MSFontService', sans-serif" font-weight="400" font-size="14.5382px" transform="scale(0.96319098,1.0382157)" id="text2150" x="64.966606" y="121.46712" style="stroke-width:0.765169">have</text>
            <text font-family="'Segoe UI', 'Segoe UI_MSFontService', sans-serif" font-weight="400" font-size="14.5382px" transform="scale(0.96319098,1.0382157)" id="text2152" x="98.552315" y="121.46712" style="stroke-width:0.765169">Region</text>
            <text font-family="'Segoe UI', 'Segoe UI_MSFontService', sans-serif" font-weight="400" font-size="14.5382px" transform="scale(0.96319098,1.0382157)" id="text2154" x="63.08429" y="139.06601" style="stroke-width:0.765169">information</text>
            <path d="m 21.342319,387.86728 c 0,-5.70387 4.289656,-10.32733 9.581269,-10.32733 H 162.10996 c 5.29169,0 9.58105,4.62346 9.58105,10.32733 v 41.30934 c 0,5.70386 -4.28936,10.32733 -9.58105,10.32733 H 30.923588 c -5.291613,0 -9.581269,-4.62347 -9.581269,-10.32733 z" stroke="#000000" stroke-width="1.02022" stroke-miterlimit="8" fill="#d0cece" fill-rule="evenodd" id="path2156" />
            <text font-family="Calibri, Calibri_MSFontService, sans-serif" font-weight="400" font-size="14.5382px" transform="scale(0.96319098,1.0382157)" id="text2158" x="40.488926" y="389.27621" style="stroke-width:0.765169">I do</text>
            <text font-family="Calibri, Calibri_MSFontService, sans-serif" font-weight="400" font-size="14.5382px" transform="scale(0.96319098,1.0382157)" id="text2160" x="65.48439" y="389.27621" style="stroke-width:0.765169">not</text>
            <text font-family="Calibri, Calibri_MSFontService, sans-serif" font-weight="400" font-size="14.5382px" transform="scale(0.96319098,1.0382157)" id="text2162" x="88.566856" y="389.27621" style="stroke-width:0.765169">have</text>
            <text font-family="Calibri, Calibri_MSFontService, sans-serif" font-weight="400" font-size="14.5382px" transform="scale(0.96319098,1.0382157)" id="text2164" x="119.43913" y="389.27621" style="stroke-width:0.765169">Region</text>
            <text font-family="Calibri, Calibri_MSFontService, sans-serif" font-weight="400" font-size="14.5382px" transform="scale(0.96319098,1.0382157)" id="text2166" x="65.555862" y="406.87512" style="stroke-width:0.765169">information</text>
            <path d="m 171.69101,130.26331 h 27.26147 V 43.093992 l -0.24564,0.264539 h 22.10245 v -0.529872 h -22.34817 v 87.169851 l 0.24572,-0.2648 h -27.01583 z m 48.13556,-83.991677 l 5.89603,-3.177641 l -5.89603,-3.177641 z" id="path2168" style="stroke-width:0.765169" />
            <path d="m 171.69101,129.41938 h 27.22418 v 87.2771 l -0.24542,-0.26454 h 22.06515 v 0.52908 h -22.31057 v -87.2771 l 0.24542,0.26454 h -26.97876 z m 48.06149,84.09946 l 5.89603,3.17764 l -5.89603,3.17764 z" id="path2170" style="stroke-width:0.765169" />
            <path d="m 171.69101,129.41938 h 49.11098 v 0.52908 h -49.11098 z m 48.12782,-2.9131 l 5.89603,3.17764 l -5.89603,3.17764 z" id="path2172" style="stroke-width:0.765169" />
            <path d="m 226.22929,295.58381 c 0,-6.5086 4.89444,-11.78428 10.93271,-11.78428 h 155.01547 c 6.03828,0 10.93272,5.27568 10.93272,11.78428 v 47.13395 c 0,6.50861 -4.89444,11.78429 -10.93272,11.78429 H 237.162 c -6.03827,0 -10.93271,-5.27568 -10.93271,-11.78429 z" stroke="#ffffff" stroke-width="1.02022" stroke-miterlimit="8" fill="#767171" fill-rule="evenodd" id="path2174" />
            <text fill="#ffffff" font-family="'Segoe UI', 'Segoe UI_MSFontService', sans-serif" font-weight="400" font-size="14.5382px" transform="scale(0.96319098,1.0382157)" id="text2176" x="269.6456" y="311.99417" style="stroke-width:0.765169">I</text>
            <text fill="#ffffff" font-family="'Segoe UI', 'Segoe UI_MSFontService', sans-serif" font-weight="400" font-size="14.5382px" transform="scale(0.96319098,1.0382157)" id="text2178" x="277.42508" y="311.99417" style="stroke-width:0.765169">have</text>
            <text fill="#ffffff" font-family="'Segoe UI', 'Segoe UI_MSFontService', sans-serif" font-weight="400" font-size="14.5382px" transform="scale(0.96319098,1.0382157)" id="text2180" x="311.01062" y="311.99417" style="stroke-width:0.765169">only</text>
            <text fill="#ffffff" font-family="'Segoe UI', 'Segoe UI_MSFontService', sans-serif" font-weight="400" font-size="14.5382px" transform="scale(0.96319098,1.0382157)" id="text2182" x="341.74518" y="311.99417" style="stroke-width:0.765169">means</text>
            <path d="m 226.22929,384.55777 c 0,-6.50861 4.89444,-11.78429 10.93271,-11.78429 h 155.01547 c 6.03828,0 10.93272,5.27568 10.93272,11.78429 v 47.13395 c 0,6.5086 -4.89444,11.78428 -10.93272,11.78428 H 237.162 c -6.03827,0 -10.93271,-5.27568 -10.93271,-11.78428 z" stroke="#ffffff" stroke-width="1.02022" stroke-miterlimit="8" fill="#767171" fill-rule="evenodd" id="path2184" />
            <text fill="#ffffff" font-family="'Segoe UI', 'Segoe UI_MSFontService', sans-serif" font-weight="400" font-size="14.5382px" transform="scale(0.96319098,1.0382157)" id="text2186" x="274.41873" y="380.85938" style="stroke-width:0.765169">My</text>
            <text fill="#ffffff" font-family="'Segoe UI', 'Segoe UI_MSFontService', sans-serif" font-weight="400" font-size="14.5382px" transform="scale(0.96319098,1.0382157)" id="text2188" x="298.13898" y="380.85938" style="stroke-width:0.765169">trials</text>
            <text fill="#ffffff" font-family="'Segoe UI', 'Segoe UI_MSFontService', sans-serif" font-weight="400" font-size="14.5382px" transform="scale(0.96319098,1.0382157)" id="text2190" x="332.18896" y="380.85938" style="stroke-width:0.765169">are in a</text>
            <text fill="#ffffff" font-family="'Segoe UI', 'Segoe UI_MSFontService', sans-serif" font-weight="400" font-size="14.5382px" transform="scale(0.96319098,1.0382157)" id="text2192" x="255.56955" y="398.45825" style="stroke-width:0.765169">Randomized</text>
            <text fill="#ffffff" font-family="'Segoe UI', 'Segoe UI_MSFontService', sans-serif" font-weight="400" font-size="14.5382px" transform="scale(0.96319098,1.0382157)" id="text2194" x="338.33557" y="398.45825" style="stroke-width:0.765169">complete</text>
            <text fill="#ffffff" font-family="'Segoe UI', 'Segoe UI_MSFontService', sans-serif" font-weight="400" font-size="14.5382px" transform="scale(0.96319098,1.0382157)" id="text2196" x="283.37579" y="415.29196" style="stroke-width:0.765169">blocks</text>
            <text fill="#ffffff" font-family="'Segoe UI', 'Segoe UI_MSFontService', sans-serif" font-weight="400" font-size="14.5382px" transform="scale(0.96319098,1.0382157)" id="text2198" x="327.50079" y="415.29196" style="stroke-width:0.765169">design</text>
            <path d="m 225.49228,473.53172 c 0,-6.5086 4.89445,-11.78428 10.93272,-11.78428 h 155.75321 c 6.03754,0 10.93198,5.27568 10.93198,11.78428 v 47.13475 c 0,6.50781 -4.89444,11.78349 -10.93198,11.78349 H 236.425 c -6.03827,0 -10.93272,-5.27568 -10.93272,-11.78349 z" stroke="#ffffff" stroke-width="1.02022" stroke-miterlimit="8" fill="#767171" fill-rule="evenodd" id="path2200" />
            <text fill="#ffffff" font-family="'Segoe UI', 'Segoe UI_MSFontService', sans-serif" font-weight="400" font-size="14.5382px" transform="scale(0.96319098,1.0382157)" id="text2202" x="251.43152" y="474.97513" style="stroke-width:0.765169">My</text>
            <text fill="#ffffff" font-family="'Segoe UI', 'Segoe UI_MSFontService', sans-serif" font-weight="400" font-size="14.5382px" transform="scale(0.96319098,1.0382157)" id="text2204" x="275.15176" y="474.97513" style="stroke-width:0.765169">trials</text>
            <text fill="#ffffff" font-family="'Segoe UI', 'Segoe UI_MSFontService', sans-serif" font-weight="400" font-size="14.5382px" transform="scale(0.96319098,1.0382157)" id="text2206" x="309.20178" y="474.97513" style="stroke-width:0.765169">are in a</text>
            <text fill="#ffffff" font-family="'Segoe UI', 'Segoe UI_MSFontService', sans-serif" font-weight="400" font-size="14.5382px" transform="scale(0.96319098,1.0382157)" id="text2208" x="359.38614" y="474.97513" style="stroke-width:0.765169">Lattice</text>
            <text fill="#ffffff" font-family="'Segoe UI', 'Segoe UI_MSFontService', sans-serif" font-weight="400" font-size="14.5382px" transform="scale(0.96319098,1.0382157)" id="text2210" x="305.08975" y="492.57404" style="stroke-width:0.765169">design</text>
            <path d="m 171.69101,409.07274 h 27.26147 V 319.548 l -0.24564,0.26453 h 22.10245 v -0.52907 h -22.34817 v 89.52448 l 0.24572,-0.2648 h -27.01583 z m 48.13556,-86.3471 l 5.89603,-3.17764 l -5.89603,-3.17765 z" id="path2212" style="stroke-width:0.765169" />
            <path d="m 171.79854,408.5434 h 27.15417 v 89.1662 l -0.24543,-0.26454 h 21.99514 v 0.52988 h -22.2413 v -89.167 l 0.24616,0.26454 h -26.90874 z m 47.92072,85.98856 l 5.89603,3.17764 l -5.89603,3.17764 z" id="path2214" style="stroke-width:0.765169" />
            <path d="m 171.79908,409.073 l 49.27599,-0.0908 l -5.1e-4,-0.5296 l -49.27602,0.0908 z m 48.29608,2.82388 l 5.89301,-3.18849 l -5.89898,-3.16677 z" id="path2216" style="stroke-width:0.765169" />
            <path d="m 447.28774,19.217137 c 0,-6.582287 4.12657,-11.9183616 9.21659,-11.9183616 h 245.77573 c 5.08755,0 9.21659,5.3360746 9.21659,11.9183616 v 47.672732 c 0,6.582365 -4.12904,11.918401 -9.21659,11.918401 H 456.50433 c -5.09002,0 -9.21659,-5.336036 -9.21659,-11.918401 z" stroke="#ffffff" stroke-width="0.931616" stroke-miterlimit="8" fill-rule="evenodd" id="path2218" />
            <text fill="#ffffff" font-family="'Source Code Pro', 'Source Code Pro_MSFontService', sans-serif" font-weight="400" font-size="10.7124px" transform="scale(0.96319098,1.0382157)" id="text2220" x="474.3956" y="25.055847" style="stroke-width:0.765169">rept</text>
            <text fill="#ffffff" font-family="'Source Code Pro', 'Source Code Pro_MSFontService', sans-serif" font-weight="400" font-size="10.7124px" id="text2222" x="500.24255" y="25.373497" transform="scale(0.96319098,1.0382157)" style="stroke-width:0.765169">= NULL</text>
            <text fill="#ffffff" font-family="'Source Code Pro', 'Source Code Pro_MSFontService', sans-serif" font-weight="400" font-size="10.7124px" transform="scale(0.96319098,1.0382157)" id="text2224" x="474.3956" y="51.071587" style="stroke-width:0.765169">reg</text>
            <text fill="#ffffff" font-family="'Source Code Pro', 'Source Code Pro_MSFontService', sans-serif" font-weight="400" font-size="10.7124px" id="text2226" x="500.85471" y="51.07159" transform="scale(0.96319098,1.0382157)" style="stroke-width:0.765169">=</text>
            <text fill="#ffffff" font-family="'Source Code Pro', 'Source Code Pro_MSFontService', sans-serif" font-weight="400" font-size="10.7124px" id="text2228" x="513.521" y="51.07159" transform="scale(0.96319098,1.0382157)" style="stroke-width:0.765169">list</text>
            <text fill="#ffffff" font-family="'Source Code Pro', 'Source Code Pro_MSFontService', sans-serif" font-weight="400" font-size="10.7124px" id="text2230" x="530.50848" y="51.07159" transform="scale(0.96319098,1.0382157)" style="stroke-width:0.765169">(c(“</text>
            <text fill="#ffffff" font-family="'Source Code Pro', 'Source Code Pro_MSFontService', sans-serif" font-weight="400" font-size="10.7124px" id="text2232" x="549.89252" y="51.07159" transform="scale(0.96319098,1.0382157)" style="stroke-width:0.765169">Region</text>
            <text fill="#ffffff" font-family="'Source Code Pro', 'Source Code Pro_MSFontService', sans-serif" font-weight="400" font-size="10.7124px" id="text2234" x="586.62067" y="51.07159" transform="scale(0.96319098,1.0382157)" style="stroke-width:0.765169">”, “Prior”, “</text>
            <text fill="#ffffff" font-family="'Source Code Pro', 'Source Code Pro_MSFontService', sans-serif" font-weight="400" font-size="10.7124px" id="text2236" x="645.02826" y="51.07159" transform="scale(0.96319098,1.0382157)" style="stroke-width:0.765169">hyperprior</text>
            <text fill="#ffffff" font-family="'Source Code Pro', 'Source Code Pro_MSFontService', sans-serif" font-weight="400" font-size="10.7124px" id="text2238" x="701.14117" y="51.07159" transform="scale(0.96319098,1.0382157)" style="stroke-width:0.765169">”),</text>
            <text fill="#ffffff" font-family="'Source Code Pro', 'Source Code Pro_MSFontService', sans-serif" font-weight="400" font-size="10.7124px" id="text2240" x="535.86469" y="64.07946" transform="scale(0.96319098,1.0382157)" style="stroke-width:0.765169">c(“Prior”, “</text>
            <text fill="#ffffff" font-family="'Source Code Pro', 'Source Code Pro_MSFontService', sans-serif" font-weight="400" font-size="10.7124px" id="text2242" x="592.48718" y="64.07946" transform="scale(0.96319098,1.0382157)" style="stroke-width:0.765169">hyperprior</text>
            <text fill="#ffffff" font-family="'Source Code Pro', 'Source Code Pro_MSFontService', sans-serif" font-weight="400" font-size="10.7124px" id="text2244" x="648.5993" y="64.07946" transform="scale(0.96319098,1.0382157)" style="stroke-width:0.765169">”))</text>
            <path d="m 447.28774,193.09143 c 0,-6.50975 4.08049,-11.78635 9.11459,-11.78635 h 245.98218 c 5.03226,0 9.11214,5.2766 9.11214,11.78635 v 47.1422 c 0,6.50974 -4.07988,11.78635 -9.11214,11.78635 H 456.40233 c -5.0341,0 -9.11459,-5.27661 -9.11459,-11.78635 z" stroke="#ffffff" stroke-width="0.931616" stroke-miterlimit="8" fill-rule="evenodd" id="path2246" />
            <text fill="#ffffff" font-family="'Source Code Pro', 'Source Code Pro_MSFontService', sans-serif" font-weight="400" font-size="10.7124px" id="text2248" x="472.8653" y="186.50648" transform="scale(0.96319098,1.0382157)" style="stroke-width:0.765169">rept</text>
            <text fill="#ffffff" font-family="'Source Code Pro', 'Source Code Pro_MSFontService', sans-serif" font-weight="400" font-size="10.7124px" id="text2250" x="499.90256" y="186.50648" transform="scale(0.96319098,1.0382157)" style="stroke-width:0.765169">=</text>
            <text fill="#ffffff" font-family="'Source Code Pro', 'Source Code Pro_MSFontService', sans-serif" font-weight="400" font-size="10.7124px" id="text2252" x="511.3793" y="186.50648" transform="scale(0.96319098,1.0382157)" style="stroke-width:0.765169">list</text>
            <text fill="#ffffff" font-family="'Source Code Pro', 'Source Code Pro_MSFontService', sans-serif" font-weight="400" font-size="10.7124px" id="text2254" x="527.70264" y="186.50648" transform="scale(0.96319098,1.0382157)" style="stroke-width:0.765169">(c(“Rep”, “Prior”, “</text>
            <text fill="#ffffff" font-family="'Source Code Pro', 'Source Code Pro_MSFontService', sans-serif" font-weight="400" font-size="10.7124px" id="text2256" x="626.1546" y="186.50648" transform="scale(0.96319098,1.0382157)" style="stroke-width:0.765169">hyperprior</text>
            <text fill="#ffffff" font-family="'Source Code Pro', 'Source Code Pro_MSFontService', sans-serif" font-weight="400" font-size="10.7124px" id="text2258" x="682.26678" y="186.50648" transform="scale(0.96319098,1.0382157)" style="stroke-width:0.765169">”),</text>
            <text fill="#ffffff" font-family="'Source Code Pro', 'Source Code Pro_MSFontService', sans-serif" font-weight="400" font-size="10.7124px" transform="scale(0.96319098,1.0382157)" id="text2260" x="560.60486" y="199.51434" style="stroke-width:0.765169">c(“Block”, “Prior”, “</text>
            <text fill="#ffffff" font-family="'Source Code Pro', 'Source Code Pro_MSFontService', sans-serif" font-weight="400" font-size="10.7124px" id="text2262" x="662.37238" y="199.51434" transform="scale(0.96319098,1.0382157)" style="stroke-width:0.765169">hyperprior</text>
            <text fill="#ffffff" font-family="'Source Code Pro', 'Source Code Pro_MSFontService', sans-serif" font-weight="400" font-size="10.7124px" id="text2264" x="718.4845" y="199.51434" transform="scale(0.96319098,1.0382157)" style="stroke-width:0.765169">”))</text>
            <text fill="#ffffff" font-family="'Source Code Pro', 'Source Code Pro_MSFontService', sans-serif" font-weight="400" font-size="10.7124px" transform="scale(0.96319098,1.0382157)" id="text2266" x="474.3956" y="225.53009" style="stroke-width:0.765169">reg</text>
            <text fill="#ffffff" font-family="'Source Code Pro', 'Source Code Pro_MSFontService', sans-serif" font-weight="400" font-size="10.7124px" transform="scale(0.96319098,1.0382157)" id="text2268" x="499.90173" y="225.53009" style="stroke-width:0.765169">=</text>
            <text fill="#ffffff" font-family="'Source Code Pro', 'Source Code Pro_MSFontService', sans-serif" font-weight="400" font-size="10.7124px" transform="scale(0.96319098,1.0382157)" id="text2270" x="512.65405" y="225.53009" style="stroke-width:0.765169">list</text>
            <text fill="#ffffff" font-family="'Source Code Pro', 'Source Code Pro_MSFontService', sans-serif" font-weight="400" font-size="10.7124px" id="text2272" x="528.97815" y="225.53009" transform="scale(0.96319098,1.0382157)" style="stroke-width:0.765169">(c(“</text>
            <text fill="#ffffff" font-family="'Source Code Pro', 'Source Code Pro_MSFontService', sans-serif" font-weight="400" font-size="10.7124px" id="text2274" x="548.36218" y="225.53009" transform="scale(0.96319098,1.0382157)" style="stroke-width:0.765169">Region</text>
            <text fill="#ffffff" font-family="'Source Code Pro', 'Source Code Pro_MSFontService', sans-serif" font-weight="400" font-size="10.7124px" id="text2276" x="583.56" y="225.53009" transform="scale(0.96319098,1.0382157)" style="stroke-width:0.765169">”, “Prior”, “</text>
            <text fill="#ffffff" font-family="'Source Code Pro', 'Source Code Pro_MSFontService', sans-serif" font-weight="400" font-size="10.7124px" id="text2278" x="641.96759" y="225.53009" transform="scale(0.96319098,1.0382157)" style="stroke-width:0.765169">hyperprior</text>
            <text fill="#ffffff" font-family="'Source Code Pro', 'Source Code Pro_MSFontService', sans-serif" font-weight="400" font-size="10.7124px" id="text2280" x="698.08051" y="225.53009" transform="scale(0.96319098,1.0382157)" style="stroke-width:0.765169">”),</text>
            <text fill="#ffffff" font-family="'Source Code Pro', 'Source Code Pro_MSFontService', sans-serif" font-weight="400" font-size="10.7124px" id="text2282" x="534.33435" y="237.7728" transform="scale(0.96319098,1.0382157)" style="stroke-width:0.765169">c(“Prior”, “</text>
            <text fill="#ffffff" font-family="'Source Code Pro', 'Source Code Pro_MSFontService', sans-serif" font-weight="400" font-size="10.7124px" id="text2284" x="590.95685" y="237.7728" transform="scale(0.96319098,1.0382157)" style="stroke-width:0.765169">hyperprior</text>
            <text fill="#ffffff" font-family="'Source Code Pro', 'Source Code Pro_MSFontService', sans-serif" font-weight="400" font-size="10.7124px" id="text2286" x="647.06897" y="237.7728" transform="scale(0.96319098,1.0382157)" style="stroke-width:0.765169">”))</text>
            <path d="m 447.28774,105.82287 c 0,-6.582047 4.12657,-11.918236 9.21659,-11.918236 h 245.77573 c 5.08755,0 9.21659,5.336189 9.21659,11.918236 v 47.67298 c 0,6.58204 -4.12904,11.91823 -9.21659,11.91823 H 456.50433 c -5.09002,0 -9.21659,-5.33619 -9.21659,-11.91823 z" stroke="#ffffff" stroke-width="0.931616" stroke-miterlimit="8" fill-rule="evenodd" id="path2288" />
            <text fill="#ffffff" font-family="'Source Code Pro', 'Source Code Pro_MSFontService', sans-serif" font-weight="400" font-size="10.7124px" transform="scale(0.96319098,1.0382157)" id="text2290" x="474.3956" y="108.45925" style="stroke-width:0.765169">rept</text>
            <text fill="#ffffff" font-family="'Source Code Pro', 'Source Code Pro_MSFontService', sans-serif" font-weight="400" font-size="10.7124px" id="text2292" x="500.15656" y="108.45925" transform="scale(0.96319098,1.0382157)" style="stroke-width:0.765169">= c(“Block”, “Prior”, “</text>
            <text fill="#ffffff" font-family="'Source Code Pro', 'Source Code Pro_MSFontService', sans-serif" font-weight="400" font-size="10.7124px" id="text2294" x="614.67706" y="108.45925" transform="scale(0.96319098,1.0382157)" style="stroke-width:0.765169">hyperprior</text>
            <text fill="#ffffff" font-family="'Source Code Pro', 'Source Code Pro_MSFontService', sans-serif" font-weight="400" font-size="10.7124px" id="text2296" x="670.78925" y="108.45925" transform="scale(0.96319098,1.0382157)" style="stroke-width:0.765169">”)</text>
            <text fill="#ffffff" font-family="'Source Code Pro', 'Source Code Pro_MSFontService', sans-serif" font-weight="400" font-size="10.7124px" id="text2298" x="477.4563" y="134.47499" transform="scale(0.96319098,1.0382157)" style="stroke-width:0.765169">reg</text>
            <text fill="#ffffff" font-family="'Source Code Pro', 'Source Code Pro_MSFontService', sans-serif" font-weight="400" font-size="10.7124px" id="text2300" x="500.3782" y="134.47499" transform="scale(0.96319098,1.0382157)" style="stroke-width:0.765169">=</text>
            <text fill="#ffffff" font-family="'Source Code Pro', 'Source Code Pro_MSFontService', sans-serif" font-weight="400" font-size="10.7124px" transform="scale(0.96319098,1.0382157)" id="text2302" x="512.65405" y="134.47499" style="stroke-width:0.765169">list</text>
            <text fill="#ffffff" font-family="'Source Code Pro', 'Source Code Pro_MSFontService', sans-serif" font-weight="400" font-size="10.7124px" id="text2304" x="530.50848" y="134.47499" transform="scale(0.96319098,1.0382157)" style="stroke-width:0.765169">(c(“</text>
            <text fill="#ffffff" font-family="'Source Code Pro', 'Source Code Pro_MSFontService', sans-serif" font-weight="400" font-size="10.7124px" id="text2306" x="549.89252" y="134.47499" transform="scale(0.96319098,1.0382157)" style="stroke-width:0.765169">Region</text>
            <text fill="#ffffff" font-family="'Source Code Pro', 'Source Code Pro_MSFontService', sans-serif" font-weight="400" font-size="10.7124px" id="text2308" x="585.09033" y="134.47499" transform="scale(0.96319098,1.0382157)" style="stroke-width:0.765169">”, “Prior”, “</text>
            <text fill="#ffffff" font-family="'Source Code Pro', 'Source Code Pro_MSFontService', sans-serif" font-weight="400" font-size="10.7124px" id="text2310" x="643.49792" y="134.47499" transform="scale(0.96319098,1.0382157)" style="stroke-width:0.765169">hyperprior</text>
            <text fill="#ffffff" font-family="'Source Code Pro', 'Source Code Pro_MSFontService', sans-serif" font-weight="400" font-size="10.7124px" id="text2312" x="699.61084" y="134.47499" transform="scale(0.96319098,1.0382157)" style="stroke-width:0.765169">”),</text>
            <text fill="#ffffff" font-family="'Source Code Pro', 'Source Code Pro_MSFontService', sans-serif" font-weight="400" font-size="10.7124px" id="text2314" x="535.86469" y="147.48286" transform="scale(0.96319098,1.0382157)" style="stroke-width:0.765169">c(“Prior”, “</text>
            <text fill="#ffffff" font-family="'Source Code Pro', 'Source Code Pro_MSFontService', sans-serif" font-weight="400" font-size="10.7124px" id="text2316" x="592.48718" y="147.48286" transform="scale(0.96319098,1.0382157)" style="stroke-width:0.765169">hyperprior</text>
            <text fill="#ffffff" font-family="'Source Code Pro', 'Source Code Pro_MSFontService', sans-serif" font-weight="400" font-size="10.7124px" id="text2318" x="648.5993" y="147.48286" transform="scale(0.96319098,1.0382157)" style="stroke-width:0.765169">”))</text>
            <path d="m 447.28774,295.58831 c 0,-6.50974 4.08049,-11.78635 9.11459,-11.78635 h 245.98218 c 5.03226,0 9.11214,5.27661 9.11214,11.78635 v 47.14221 c 0,6.50974 -4.07988,11.78635 -9.11214,11.78635 H 456.40233 c -5.0341,0 -9.11459,-5.27661 -9.11459,-11.78635 z" stroke="#ffffff" stroke-width="0.931616" stroke-miterlimit="8" fill-rule="evenodd" id="path2320" />
            <text fill="#ffffff" font-family="'Source Code Pro', 'Source Code Pro_MSFontService', sans-serif" font-weight="400" font-size="10.7124px" transform="scale(0.96319098,1.0382157)" id="text2322" x="474.3956" y="297.45596" style="stroke-width:0.765169">rept</text>
            <text fill="#ffffff" font-family="'Source Code Pro', 'Source Code Pro_MSFontService', sans-serif" font-weight="400" font-size="10.7124px" id="text2324" x="499.90256" y="297.45596" transform="scale(0.96319098,1.0382157)" style="stroke-width:0.765169">= NULL</text>
            <text fill="#ffffff" font-family="'Source Code Pro', 'Source Code Pro_MSFontService', sans-serif" font-weight="400" font-size="10.7124px" transform="scale(0.96319098,1.0382157)" id="text2326" x="474.3956" y="323.47171" style="stroke-width:0.765169">reg</text>
            <text fill="#ffffff" font-family="'Source Code Pro', 'Source Code Pro_MSFontService', sans-serif" font-weight="400" font-size="10.7124px" transform="scale(0.96319098,1.0382157)" id="text2328" x="499.90173" y="323.47171" style="stroke-width:0.765169">= NULL</text>
            <path d="m 447.28774,473.5674 c 0,-6.50975 4.08049,-11.78635 9.11459,-11.78635 h 245.98218 c 5.03226,0 9.11214,5.2766 9.11214,11.78635 v 47.14221 c 0,6.50975 -4.07988,11.78635 -9.11214,11.78635 H 456.40233 c -5.0341,0 -9.11459,-5.2766 -9.11459,-11.78635 z" stroke="#ffffff" stroke-width="0.931616" stroke-miterlimit="8" fill-rule="evenodd" id="path2330" />
            <text fill="#ffffff" font-family="'Source Code Pro', 'Source Code Pro_MSFontService', sans-serif" font-weight="400" font-size="10.7124px" transform="scale(0.96319098,1.0382157)" id="text2332" x="474.3956" y="462.73242" style="stroke-width:0.765169">rept</text>
            <text fill="#ffffff" font-family="'Source Code Pro', 'Source Code Pro_MSFontService', sans-serif" font-weight="400" font-size="10.7124px" id="text2334" x="500.15656" y="462.73245" transform="scale(0.96319098,1.0382157)" style="stroke-width:0.765169">=</text>
            <text fill="#ffffff" font-family="'Source Code Pro', 'Source Code Pro_MSFontService', sans-serif" font-weight="400" font-size="10.7124px" id="text2336" x="509.84894" y="462.73245" transform="scale(0.96319098,1.0382157)" style="stroke-width:0.765169">list</text>
            <text fill="#ffffff" font-family="'Source Code Pro', 'Source Code Pro_MSFontService', sans-serif" font-weight="400" font-size="10.7124px" id="text2338" x="526.1723" y="462.73245" transform="scale(0.96319098,1.0382157)" style="stroke-width:0.765169">(c(“Rep”, “Prior”, “</text>
            <text fill="#ffffff" font-family="'Source Code Pro', 'Source Code Pro_MSFontService', sans-serif" font-weight="400" font-size="10.7124px" id="text2340" x="624.62427" y="462.73245" transform="scale(0.96319098,1.0382157)" style="stroke-width:0.765169">hyperprior</text>
            <text fill="#ffffff" font-family="'Source Code Pro', 'Source Code Pro_MSFontService', sans-serif" font-weight="400" font-size="10.7124px" id="text2342" x="680.73639" y="462.73245" transform="scale(0.96319098,1.0382157)" style="stroke-width:0.765169">”),</text>
            <text fill="#ffffff" font-family="'Source Code Pro', 'Source Code Pro_MSFontService', sans-serif" font-weight="400" font-size="10.7124px" id="text2344" x="531.5285" y="475.7403" transform="scale(0.96319098,1.0382157)" style="stroke-width:0.765169">c(“Block”, “Prior”, “</text>
            <text fill="#ffffff" font-family="'Source Code Pro', 'Source Code Pro_MSFontService', sans-serif" font-weight="400" font-size="10.7124px" id="text2346" x="633.29596" y="475.7403" transform="scale(0.96319098,1.0382157)" style="stroke-width:0.765169">hyperprior</text>
            <text fill="#ffffff" font-family="'Source Code Pro', 'Source Code Pro_MSFontService', sans-serif" font-weight="400" font-size="10.7124px" id="text2348" x="689.40808" y="475.7403" transform="scale(0.96319098,1.0382157)" style="stroke-width:0.765169">”))</text>
            <text fill="#ffffff" font-family="'Source Code Pro', 'Source Code Pro_MSFontService', sans-serif" font-weight="400" font-size="10.7124px" transform="scale(0.96319098,1.0382157)" id="text2350" x="474.3956" y="501.75604" style="stroke-width:0.765169">reg</text>
            <text fill="#ffffff" font-family="'Source Code Pro', 'Source Code Pro_MSFontService', sans-serif" font-weight="400" font-size="10.7124px" transform="scale(0.96319098,1.0382157)" id="text2352" x="499.90173" y="501.75604" style="stroke-width:0.765169">= NULL</text>
            <path d="m 447.28774,384.57786 c 0,-6.50975 4.08049,-11.78635 9.11459,-11.78635 h 245.98218 c 5.03226,0 9.11214,5.2766 9.11214,11.78635 v 47.1422 c 0,6.50974 -4.07988,11.78635 -9.11214,11.78635 H 456.40233 c -5.0341,0 -9.11459,-5.27661 -9.11459,-11.78635 z" stroke="#ffffff" stroke-width="0.931616" stroke-miterlimit="8" fill-rule="evenodd" id="path2354" />
            <text fill="#ffffff" font-family="'Source Code Pro', 'Source Code Pro_MSFontService', sans-serif" font-weight="400" font-size="10.7124px" transform="scale(0.96319098,1.0382157)" id="text2356" x="474.3956" y="383.15488" style="stroke-width:0.765169">rept</text>
            <text fill="#ffffff" font-family="'Source Code Pro', 'Source Code Pro_MSFontService', sans-serif" font-weight="400" font-size="10.7124px" id="text2358" x="500.15656" y="383.15488" transform="scale(0.96319098,1.0382157)" style="stroke-width:0.765169">= c(“Block”, “Prior”, “</text>
            <text fill="#ffffff" font-family="'Source Code Pro', 'Source Code Pro_MSFontService', sans-serif" font-weight="400" font-size="10.7124px" id="text2360" x="614.67706" y="383.15488" transform="scale(0.96319098,1.0382157)" style="stroke-width:0.765169">hyperprior</text>
            <text fill="#ffffff" font-family="'Source Code Pro', 'Source Code Pro_MSFontService', sans-serif" font-weight="400" font-size="10.7124px" id="text2362" x="670.78925" y="383.15488" transform="scale(0.96319098,1.0382157)" style="stroke-width:0.765169">”)</text>
            <text fill="#ffffff" font-family="'Source Code Pro', 'Source Code Pro_MSFontService', sans-serif" font-weight="400" font-size="10.7124px" transform="scale(0.96319098,1.0382157)" id="text2364" x="474.3956" y="409.17062" style="stroke-width:0.765169">reg</text>
            <text fill="#ffffff" font-family="'Source Code Pro', 'Source Code Pro_MSFontService', sans-serif" font-weight="400" font-size="10.7124px" transform="scale(0.96319098,1.0382157)" id="text2366" x="499.90173" y="409.17062" style="stroke-width:0.765169">= NULL</text>
            <path d="m 403.1124,42.828419 l 38.71628,0.313792 l -0.004,0.529554 l -38.71555,-0.313712 z m 37.75375,-2.606937 l 5.87319,3.225306 l -5.91741,3.129739 z" id="path2368" style="stroke-width:0.765169" />
            <path d="m 403.11019,129.41938 l 38.79072,0.0215 l -7.4e-4,0.52908 l -38.78998,-0.0214 z m 37.80903,-2.89244 l 5.89455,3.18081 l -5.8975,3.17447 z" id="path2370" style="stroke-width:0.765169" />
            <path d="m 403.11166,216.01011 l 38.79072,0.27407 l -0.004,0.52987 l -38.78998,-0.27486 z m 37.82598,-2.64539 l 5.87613,3.21895 l -5.91519,3.13634 z" id="path2372" style="stroke-width:0.765169" />
            <path d="m 403.11019,319.81279 l 38.71613,-7e-5 v -0.52961 l -38.71613,8e-5 z m 37.73341,2.91277 l 5.89603,-3.17765 l -5.89603,-3.17763 z" id="path2374" style="stroke-width:0.765169" />
            <path d="m 403.10795,408.05022 l 38.62643,0.1276 l 0.002,-0.52961 l -38.62644,-0.1276 z m 37.63173,3.03716 l 5.90913,-3.15814 l -5.88284,-3.19708 z" id="path2376" style="stroke-width:0.765169" />
            <path d="m 403.11019,497.7607 l 38.93082,-7e-5 v -0.52961 l -38.93082,8e-5 z m 37.94818,2.91277 l 5.89603,-3.17765 l -5.89603,-3.17763 z" id="path2378" style="stroke-width:0.765169" />
        </g>
    </g>
</svg>
